<?xml version="1.0" standalone="no"?>
<!DOCTYPE svg PUBLIC "-//W3C//DTD SVG 20010904//EN"
 "http://www.w3.org/TR/2001/REC-SVG-20010904/DTD/svg10.dtd">
<svg version="1.0" xmlns="http://www.w3.org/2000/svg"
 width="2937.000000pt" height="1029.000000pt" viewBox="0 0 2937.000000 1029.000000"
 preserveAspectRatio="xMidYMid meet">

<g transform="translate(0.000000,1029.000000) scale(0.100000,-0.100000)"
fill="#000000" stroke="none">
<path d="M4250 8967 l0 -937 -1441 0 -1441 0 -403 -80 c-222 -44 -411 -80
-422 -80 -10 0 -54 36 -98 80 -44 44 -83 80 -87 80 -5 0 -8 -1482 -8 -3293 l0
-3294 84 -419 85 -419 -77 -78 -77 -77 3360 0 3360 0 420 84 420 84 85 -84
c47 -46 89 -84 93 -84 4 0 7 837 7 1860 l0 1860 583 0 582 1 300 68 300 69 70
-69 c39 -38 74 -69 78 -69 4 0 7 1124 7 2498 l0 2498 -70 310 -69 309 56 58
57 57 -2495 0 -2495 0 -310 -70 -309 -69 -72 72 -73 71 0 -937z m4492 -1932
l3 -1575 -317 0 -318 0 0 788 0 789 -84 419 -85 419 77 78 77 77 -1277 0
-1277 0 -3 290 -3 290 1602 0 1603 0 2 -1575z m-4492 -1333 l0 -798 70 -310
69 -309 -56 -58 -57 -57 1147 0 1147 0 0 -1083 c0 -829 3 -1086 12 -1095 9 -9
-511 -12 -2342 -12 l-2355 0 3 2246 c1 1655 -1 2250 -9 2260 -10 12 178 14
1180 14 l1191 0 0 -798z m2322 278 l-2 -520 -515 0 -515 0 0 520 0 520 518 0
517 0 -3 -520z"/>
<path d="M11669 7345 c-210 -30 -394 -125 -533 -276 -104 -112 -161 -217 -203
-376 -23 -86 -26 -118 -26 -258 0 -185 17 -267 80 -388 84 -159 214 -246 503
-337 348 -109 414 -135 494 -196 28 -21 56 -55 72 -87 22 -43 26 -60 22 -112
-3 -33 -13 -75 -22 -92 -24 -48 -83 -100 -145 -130 -120 -57 -339 -38 -504 43
-82 40 -185 108 -257 170 l-54 46 -22 -44 c-12 -23 -81 -153 -152 -288 l-131
-244 67 -45 c289 -194 677 -294 1018 -262 299 28 522 121 690 286 135 133 208
283 240 495 45 298 -16 543 -173 697 -116 114 -247 180 -561 282 -130 43 -256
87 -279 99 -163 84 -199 231 -84 343 86 83 234 111 390 73 78 -19 206 -78 276
-128 l49 -35 59 112 c32 62 96 187 142 278 l84 167 -90 41 c-200 92 -421 151
-629 170 -141 13 -210 12 -321 -4z"/>
<path d="M13290 5915 l0 -1375 355 0 355 0 0 455 0 455 244 0 c387 0 535 22
706 107 79 38 110 61 181 132 73 74 93 102 138 191 143 290 149 666 15 944
-122 254 -355 410 -679 455 -47 7 -311 11 -696 11 l-619 0 0 -1375z m1130 780
c130 -39 208 -143 218 -288 8 -136 -47 -272 -132 -322 -74 -43 -145 -55 -333
-55 l-173 0 0 346 0 347 183 -6 c127 -4 199 -10 237 -22z"/>
<path d="M16042 5933 c-287 -747 -524 -1366 -528 -1375 -6 -17 16 -18 372 -18
l379 0 94 240 94 240 495 -2 495 -3 87 -235 87 -235 381 -3 382 -2 -19 47
c-10 27 -242 645 -517 1376 l-498 1327 -392 0 -391 0 -521 -1357z m1061 62
l146 -435 -300 0 c-237 0 -300 3 -296 13 2 6 69 202 148 434 79 233 147 423
150 423 3 0 71 -196 152 -435z"/>
<path d="M18700 5915 l0 -1375 355 0 355 0 2 527 3 526 340 -526 340 -527 443
0 443 0 -19 28 c-11 15 -204 268 -430 562 l-409 535 83 27 c208 68 337 175
429 355 61 121 79 206 79 388 1 134 -3 173 -21 240 -77 282 -255 475 -521 564
-136 46 -217 51 -864 51 l-608 0 0 -1375z m993 820 c124 -26 204 -84 259 -187
19 -36 23 -57 23 -138 -1 -112 -19 -163 -87 -236 -76 -83 -174 -114 -365 -114
l-113 0 0 345 0 345 108 0 c59 0 138 -7 175 -15z"/>
<path d="M21030 6995 l0 -295 290 0 290 0 0 -1080 0 -1080 360 0 360 0 0 1080
0 1080 295 0 295 0 0 295 0 295 -945 0 -945 0 0 -295z"/>
<path d="M23530 5973 c-278 -724 -515 -1343 -527 -1375 l-22 -58 378 0 378 0
94 240 94 240 495 -3 495 -2 89 -237 88 -238 379 0 c209 0 379 2 379 4 0 3
-1002 2670 -1025 2729 -7 16 -35 17 -399 17 l-391 0 -505 -1317z m1044 28 c81
-239 145 -436 143 -438 -2 -2 -137 -2 -299 -1 l-295 3 150 438 c83 240 151
436 153 435 1 -2 68 -198 148 -437z"/>
<path d="M26170 5915 l0 -1375 360 0 360 0 2 838 3 838 653 -838 654 -838 359
0 359 0 0 1375 0 1375 -355 0 -355 0 -2 -842 -3 -843 -656 840 -656 840 -361
3 -362 2 0 -1375z"/>
<path d="M13381 3274 c-136 -17 -265 -54 -376 -109 -100 -49 -205 -120 -205
-139 0 -16 88 -101 96 -93 6 6 84 -83 84 -96 0 -3 -28 -34 -63 -69 -205 -206
-303 -556 -232 -833 48 -189 179 -390 317 -490 l55 -39 -35 -56 c-19 -30 -58
-79 -86 -108 -59 -61 -64 -51 69 -117 171 -84 333 -117 569 -116 162 0 280 18
411 62 484 162 795 655 745 1182 -35 362 -214 659 -517 858 -144 94 -322 150
-536 168 -151 13 -161 13 -296 -5z m843 -545 c99 -109 170 -248 203 -392 24
-108 21 -310 -6 -411 -27 -103 -86 -224 -149 -306 -47 -63 -166 -181 -180
-179 -11 0 -89 113 -117 169 -14 27 -29 50 -33 50 -4 0 -32 -16 -62 -36 -81
-51 -167 -76 -290 -81 -190 -9 -323 41 -451 167 -193 192 -242 468 -124 702
54 107 139 200 234 256 172 100 408 109 583 21 l56 -29 20 58 c17 50 22 57 44
54 20 -2 32 8 62 53 l38 55 58 -45 c32 -25 83 -72 114 -106z"/>
<path d="M15996 3259 c-202 -28 -419 -117 -555 -228 l-35 -29 81 -103 81 -103
-60 -65 c-154 -165 -221 -341 -221 -586 0 -187 32 -313 114 -452 34 -58 166
-199 227 -244 l34 -24 -34 -55 c-18 -30 -55 -76 -83 -103 -49 -46 -49 -48 -30
-63 44 -34 225 -115 307 -138 120 -34 310 -51 419 -36 104 13 233 45 322 77
l67 25 0 329 c0 181 -2 329 -3 329 -2 0 -16 -31 -31 -70 -29 -72 -38 -82 -54
-53 -9 14 -15 13 -63 -17 -97 -59 -172 -82 -294 -87 -160 -8 -281 27 -390 111
-152 119 -217 257 -219 471 0 101 3 131 24 194 41 127 117 225 233 301 86 57
165 81 286 87 126 7 188 -5 300 -59 58 -27 87 -36 94 -29 7 7 6 15 -2 25 -10
12 -10 19 2 36 15 21 17 18 105 -180 8 -19 10 57 9 309 l-2 334 -85 29 c-178
60 -399 87 -544 67z"/>
<path d="M20116 3259 c-202 -26 -403 -111 -565 -237 l-24 -19 82 -103 82 -103
-44 -46 c-183 -189 -261 -425 -235 -710 22 -242 130 -428 347 -599 l25 -19
-46 -70 c-25 -38 -62 -84 -83 -102 -20 -18 -35 -34 -33 -37 20 -19 177 -99
244 -123 176 -64 422 -83 594 -47 86 18 255 69 278 84 9 7 12 80 10 333 l-3
324 -29 -73 c-29 -73 -30 -73 -47 -51 l-16 22 -59 -36 c-95 -58 -164 -79 -289
-84 -93 -5 -124 -2 -190 16 -200 55 -351 206 -402 404 -23 91 -21 263 6 347
60 190 214 336 406 385 77 19 221 19 298 -1 33 -8 91 -31 129 -50 74 -37 92
-37 82 1 -3 13 -1 32 4 42 9 15 16 6 46 -62 20 -44 43 -93 51 -110 12 -27 14
7 12 299 l-2 329 -40 14 c-106 37 -220 66 -315 78 -116 16 -172 17 -274 4z"/>
<path d="M9130 3083 l135 -138 -3 -797 -2 -797 -131 -135 -131 -136 478 0
c606 0 699 12 864 110 179 106 269 274 270 502 0 114 -13 176 -61 274 -55 117
-145 186 -294 229 -33 10 -63 19 -68 22 -4 2 20 24 53 49 65 48 107 104 142
194 20 49 22 73 22 215 0 140 -3 167 -22 219 -60 161 -161 252 -337 303 -53
15 -121 18 -555 20 l-495 4 135 -138z m858 -137 c108 -56 153 -135 160 -287 7
-138 -9 -179 -107 -280 -42 -44 -82 -79 -88 -79 -7 0 -36 29 -64 64 l-51 64
-37 -21 c-30 -18 -55 -23 -148 -26 l-113 -3 0 211 0 211 100 0 c67 0 113 -5
136 -15 20 -8 39 -13 43 -11 3 2 27 47 51 100 25 53 51 96 58 96 7 0 34 -11
60 -24z m123 -911 c97 -49 155 -100 187 -165 25 -50 27 -65 27 -170 0 -112 -1
-117 -34 -177 -18 -35 -53 -78 -76 -97 l-42 -35 -28 29 c-26 27 -30 28 -55 15
l-27 -14 -33 70 c-26 53 -38 68 -50 63 -90 -40 -130 -47 -283 -52 l-157 -4 2
228 3 229 120 3 c129 3 240 -10 285 -33 l28 -14 28 79 c15 44 29 80 32 80 2 0
35 -16 73 -35z"/>
<path d="M11113 3082 l137 -137 0 -795 0 -795 -137 -137 -138 -138 608 0 607
0 0 230 0 230 -332 2 -333 3 -3 838 -2 837 -272 0 -273 0 138 -138z"/>
<path d="M17113 3082 l137 -137 0 -795 0 -795 -137 -137 -138 -138 278 0 277
0 0 467 0 468 -26 77 -26 78 26 78 26 77 0 448 0 447 -277 0 -278 0 138 -138z"/>
<path d="M18210 3216 c0 -2 26 -60 59 -129 l59 -124 -299 -376 c-168 -211
-299 -384 -299 -395 0 -12 138 -194 316 -419 174 -219 321 -403 326 -409 5 -7
-15 -62 -56 -148 l-65 -136 356 0 c338 0 355 1 341 18 -8 9 -176 215 -374 457
-197 242 -397 488 -445 547 l-88 106 407 489 c224 270 413 497 421 506 12 16
-10 17 -323 17 -185 0 -336 -2 -336 -4z"/>
<path d="M21238 3086 l132 -134 0 -798 0 -799 -137 -137 -138 -138 278 0 277
0 0 450 0 450 405 0 406 -1 50 55 c41 46 47 55 32 60 -10 3 -101 22 -202 42
l-183 38 153 32 c85 17 180 37 213 44 l59 12 -64 64 -63 64 -403 0 -403 0 0
415 0 415 -272 0 -271 0 131 -134z"/>
<path d="M22593 3082 l137 -137 0 -795 0 -795 -137 -137 -138 -138 273 0 272
0 0 1070 0 1070 -272 0 -273 0 138 -138z"/>
<path d="M24153 3096 l84 -124 -243 -668 c-133 -368 -266 -732 -296 -809 l-55
-140 -198 -138 -198 -137 293 2 293 3 73 185 72 185 388 5 388 5 68 99 c38 55
65 103 61 107 -5 3 -68 50 -142 103 l-133 96 -239 0 c-132 0 -239 2 -239 4 0
2 54 162 120 355 l120 351 0 235 c0 129 3 235 6 235 4 0 29 -17 58 -37 28 -20
52 -38 54 -39 1 -1 95 -262 208 -580 113 -319 244 -683 291 -811 l85 -231 -91
-131 c-50 -72 -91 -133 -91 -136 0 -3 131 -5 291 -5 272 0 290 1 285 18 -3 9
-183 490 -399 1067 l-393 1050 -302 3 -303 2 84 -124z"/>
<path d="M25858 3087 l132 -132 0 -800 0 -800 -121 -120 c-66 -66 -125 -128
-130 -137 -9 -17 6 -18 261 -18 l270 0 0 1070 0 1070 -272 0 -273 0 133 -133z"/>
<path d="M26858 3087 l132 -132 0 -798 0 -799 -130 -136 -130 -137 267 -3
c146 -1 268 -1 269 1 2 2 4 302 4 668 l0 664 -100 293 c-55 160 -96 292 -92
292 41 -3 116 -94 701 -847 347 -447 631 -817 631 -822 0 -5 -25 -62 -55 -126
-30 -65 -55 -119 -55 -121 0 -2 124 -4 275 -4 l275 0 0 1070 0 1070 -271 0
-271 0 40 -47 c22 -27 81 -88 131 -138 l91 -90 0 -795 0 -796 -30 -29 -29 -28
-9 24 c-5 13 -52 149 -105 301 l-95 278 -468 602 c-258 332 -488 629 -513 661
l-44 57 -276 0 -276 0 133 -133z"/>
</g>
</svg>
